<svg width="96" height="96" viewBox="0 0 96 96" fill="none" xmlns="http://www.w3.org/2000/svg">
<circle cx="48" cy="48" r="48" fill="#76BC00" fill-opacity="0.1"/>
<path d="M62.8438 35.1875C63 35.0312 63.1562 34.875 63.4688 34.875C63.7031 34.875 63.9375 35.0312 64.0938 35.1875L65.0312 36.0469C65.1875 36.2812 65.2656 36.5156 65.2656 36.75C65.2656 37.0625 65.1875 37.2188 65.0312 37.375L41.5938 60.8125C41.3594 61.0469 41.125 61.125 40.8906 61.125C40.6562 61.125 40.4219 61.0469 40.2656 60.8125L30.9688 51.5156C30.8125 51.3594 30.7344 51.2031 30.7344 50.8906C30.7344 50.6562 30.8125 50.4219 30.9688 50.1875L31.9062 49.3281C32.0625 49.1719 32.2188 49.0156 32.5312 49.0156C32.7656 49.0156 33 49.1719 33.1562 49.3281L40.8906 57.0625L62.8438 35.1875Z" fill="#76BC00"/>
</svg>
